<svg width="100" height="73" viewBox="0 0 100 73" fill="none" xmlns="http://www.w3.org/2000/svg">
<g opacity="0.7">
<path opacity="0.7" d="M56.4889 23.355C56.4935 21.9945 56.1593 20.6532 55.5151 19.4464C55.2091 18.8796 54.9302 18.5273 54.713 18.3112C54.6312 18.2265 54.5242 18.1689 54.4072 18.1464C54.2901 18.1239 54.1687 18.1376 54.06 18.1855C53.9731 18.2154 53.8946 18.2648 53.8308 18.3296C53.5404 18.6228 53.278 19.0103 53.0489 19.4229C52.3711 20.658 52.0192 22.0381 52.0252 23.4387V24.2797H51.4718V14.5081C51.4718 12.46 51.0015 10.4392 50.0803 8.64513C49.6438 7.79584 49.2457 7.26817 48.9392 6.94376C48.8649 6.86129 48.7735 6.79521 48.6709 6.74994C48.5684 6.70467 48.4571 6.68126 48.3445 6.68126C48.232 6.68126 48.1207 6.70467 48.0182 6.74994C47.9156 6.79521 47.8242 6.86129 47.7499 6.94376C47.3352 7.3832 46.9611 7.96391 46.634 8.58147C45.6653 10.4124 45.1732 12.4901 45.1732 14.5991V24.2797H44.6948V23.3985C44.7008 21.9979 44.349 20.6178 43.6711 19.3827C43.442 18.9706 43.1796 18.5831 42.8892 18.2894C42.8056 18.2036 42.6962 18.1459 42.5767 18.1246C42.4573 18.1033 42.334 18.1196 42.2247 18.171L42.2447 18.1816C42.1746 18.2119 42.1111 18.2551 42.058 18.3089C41.8431 18.525 41.5642 18.8774 41.256 19.4441C40.6117 20.651 40.2775 21.9923 40.2821 23.3528V37.9621H41.9892L41.803 39.1632V42.7541H43.1985V39.1632L43.0123 37.9621H44.6948V24.6577H45.1732V37.9024H46.5366L46.3407 39.1626V42.7541H47.7367V39.1632L47.5408 37.9029H49.378L49.1821 39.1632V42.7541H50.5781V39.1632L50.3822 37.9029H51.4706V24.6577H52.024V37.9822H52.4726V37.9621H53.9557L53.7695 39.1632V42.7541H55.1656V39.1632L54.9794 37.9621H56.4889V23.355Z" fill="url(#paint0_linear)"/>
</g>
<path d="M43.4764 38.463H42.1548L42.3908 36.899H43.2404L43.4764 38.463Z" fill="#535461"/>
<g opacity="0.1">
<path opacity="0.1" d="M42.3249 37.5199H43.3062L43.2403 37.0827H42.3908L42.3249 37.5199Z" fill="black"/>
</g>
<path d="M54.8052 38.463H53.4836L53.7197 36.899H54.5692L54.8052 38.463Z" fill="#535461"/>
<g opacity="0.1">
<path opacity="0.1" d="M53.6538 37.5199H54.6351L54.5692 37.0827H53.7197L53.6538 37.5199Z" fill="black"/>
</g>
<path d="M47.7722 38.463H46.4501L46.6861 36.899H47.5362L47.7722 38.463Z" fill="#535461"/>
<g opacity="0.1">
<path opacity="0.1" d="M46.6202 37.5199H47.6021L47.5362 37.0827H46.6861L46.6202 37.5199Z" fill="black"/>
</g>
<path d="M50.4624 38.463H49.1408L49.3768 36.899H50.2264L50.4624 38.463Z" fill="#535461"/>
<g opacity="0.1">
<path opacity="0.1" d="M49.3109 37.5199H50.2928L50.2263 37.0827H49.3768L49.3109 37.5199Z" fill="black"/>
</g>
<path d="M52.9171 23.9698H43.4764V24.3377H52.9171V23.9698Z" fill="#535461"/>
<path d="M54.3768 18.1554C54.3269 18.1017 54.266 18.0588 54.1981 18.0295C54.1302 18.0001 54.0567 17.9849 53.9824 17.9849C53.9081 17.9849 53.8346 18.0001 53.7667 18.0295C53.6987 18.0588 53.6378 18.1017 53.588 18.1554C53.313 18.4407 53.0649 18.8182 52.8478 19.2197C52.2053 20.427 51.8729 21.7682 51.8791 23.1283V37.2937H56.057V23.0697C56.0623 21.7469 55.746 20.4417 55.1341 19.261C54.8442 18.7093 54.5802 18.3659 54.3768 18.1554Z" fill="#E0E0E0"/>
<path d="M42.3965 18.1554C42.4464 18.1017 42.5073 18.0588 42.5752 18.0295C42.6431 18.0001 42.7166 17.9849 42.7909 17.9849C42.8652 17.9849 42.9387 18.0001 43.0066 18.0295C43.0746 18.0588 43.1354 18.1017 43.1853 18.1554C43.4603 18.4407 43.7084 18.8182 43.9255 19.2197C44.568 20.427 44.9004 21.7682 44.8942 23.1283V37.2937H40.7152V23.0697C40.7099 21.7469 41.0262 20.4417 41.638 19.261C41.9273 18.7093 42.1914 18.3659 42.3965 18.1554Z" fill="#E0E0E0"/>
<path d="M40.7386 23.3717L41.7297 23.3762V24.5678H40.7386V23.3717Z" fill="#535461"/>
<path d="M43.9014 23.3717L44.8925 23.3762V24.5678H43.9014V23.3717Z" fill="#535461"/>
<path d="M51.8785 23.3717L52.8702 23.3762V24.5678H51.8785V23.3717Z" fill="#535461"/>
<path d="M55.0413 23.3717L56.0329 23.3762V24.5678H55.0413V23.3717Z" fill="#535461"/>
<g opacity="0.1">
<path opacity="0.1" d="M43.9238 19.2012C43.7072 18.7998 43.4586 18.4223 43.1836 18.137C43.1059 18.0533 43.0023 17.9967 42.8885 17.9759C42.7747 17.955 42.6571 17.971 42.5535 18.0214C42.6132 18.0504 42.6671 18.0896 42.7127 18.137C42.9877 18.4223 43.2357 18.7998 43.4529 19.2012C44.0953 20.4086 44.4278 21.7498 44.4216 23.1099V37.2742H44.8936V23.1115C44.8997 21.7508 44.5669 20.409 43.9238 19.2012V19.2012Z" fill="black"/>
</g>
<g opacity="0.1">
<path opacity="0.1" d="M53.2236 19.2403C53.4402 18.8389 53.6888 18.4614 53.9637 18.1761C54.0152 18.1221 54.0774 18.0788 54.1465 18.0488C54.0444 18.0052 53.9308 17.994 53.8218 18.0169C53.7128 18.0397 53.614 18.0954 53.5393 18.1761C53.2643 18.4614 53.0162 18.8389 52.7991 19.2403C52.1566 20.4477 51.8242 21.7889 51.8304 23.149V37.3133H52.2555V23.1512C52.2487 21.7904 52.581 20.4484 53.2236 19.2403V19.2403Z" fill="black"/>
</g>
<path d="M43.4764 38.463H42.1548V41.9595H43.4764V38.463Z" fill="url(#paint1_linear)"/>
<path d="M47.7717 38.463H46.4501V41.9595H47.7717V38.463Z" fill="url(#paint2_linear)"/>
<path d="M50.4624 38.463H49.1408V41.9595H50.4624V38.463Z" fill="url(#paint3_linear)"/>
<path d="M54.8052 38.463H53.4836V41.9595H54.8052V38.463Z" fill="url(#paint4_linear)"/>
<path d="M48.9099 7.04929C48.8409 6.9693 48.7548 6.905 48.6575 6.86089C48.5603 6.81677 48.4544 6.79392 48.3471 6.79392C48.2399 6.79392 48.1339 6.81677 48.0367 6.86089C47.9395 6.905 47.8533 6.9693 47.7843 7.04929C47.3919 7.47701 47.0396 8.04264 46.7279 8.64457C45.8113 10.428 45.345 12.4521 45.345 14.5047V37.2357H51.3079V14.4132C51.3079 12.4186 50.8628 10.4487 49.9904 8.70599C49.5773 7.87904 49.2004 7.36533 48.9099 7.04929Z" fill="#EEEEEE"/>
<path d="M49.2107 9.57427H47.3598C47.0118 9.57427 46.7297 9.84926 46.7297 10.1885V10.3499C46.7297 10.6891 47.0118 10.9641 47.3598 10.9641H49.2107C49.5588 10.9641 49.8409 10.6891 49.8409 10.3499V10.1885C49.8409 9.84926 49.5588 9.57427 49.2107 9.57427Z" fill="#6C63FF"/>
<g opacity="0.7">
<path opacity="0.7" d="M62.2175 41.5776C62.0218 40.4277 61.3888 39.3918 60.4445 38.6765C59.5003 37.9612 58.3141 37.6191 57.1226 37.7182C55.931 37.8173 54.8215 38.3504 54.0152 39.2113C53.209 40.0722 52.7651 41.1976 52.7722 42.3632C52.7722 42.3861 52.7722 42.4085 52.7722 42.4314C52.5963 42.4573 52.4222 42.4937 52.2509 42.5402C52.0314 41.6884 51.5457 40.9242 50.8609 40.3533C50.1761 39.7825 49.3262 39.4333 48.4288 39.3541C47.5314 39.2749 46.631 39.4696 45.8522 39.9113C45.0734 40.353 44.4547 41.0198 44.0819 41.8194C43.6976 41.6749 43.294 41.585 42.8834 41.5525V41.5525C42.818 41.1901 42.7082 40.8368 42.5563 40.4999C42.4851 39.4371 42.0054 38.4396 41.2129 37.7063C40.4204 36.973 39.3734 36.5579 38.2808 36.5438C37.1881 36.5297 36.1303 36.9177 35.3181 37.6303C34.506 38.3428 33.9994 39.3277 33.8993 40.3883C33.6743 40.8525 33.5307 41.3502 33.4742 41.8607C32.4798 42.264 31.6744 43.0127 31.2141 43.9618C30.7538 44.9109 30.6714 45.9928 30.9828 46.9978H65.7887C65.9702 46.4116 66.0191 45.794 65.9321 45.1877C65.8451 44.5813 65.6243 44.0005 65.2848 43.4854C64.9454 42.9702 64.4954 42.5329 63.9659 42.2035C63.4364 41.8742 62.8399 41.6606 62.2175 41.5776V41.5776Z" fill="url(#paint5_linear)"/>
</g>
<path d="M38.6225 44.8832C40.9267 44.8832 42.7947 43.0625 42.7947 40.8165C42.7947 38.5706 40.9267 36.7499 38.6225 36.7499C36.3183 36.7499 34.4504 38.5706 34.4504 40.8165C34.4504 43.0625 36.3183 44.8832 38.6225 44.8832Z" fill="url(#paint6_linear)"/>
<path d="M38.6019 46.7945C41.125 46.7945 43.1705 44.8008 43.1705 42.3415C43.1705 39.8821 41.125 37.8884 38.6019 37.8884C36.0787 37.8884 34.0333 39.8821 34.0333 42.3415C34.0333 44.8008 36.0787 46.7945 38.6019 46.7945Z" fill="url(#paint7_linear)"/>
<path d="M57.1683 46.7945C59.6914 46.7945 61.7369 44.8008 61.7369 42.3415C61.7369 39.8821 59.6914 37.8884 57.1683 37.8884C54.6451 37.8884 52.5997 39.8821 52.5997 42.3415C52.5997 44.8008 54.6451 46.7945 57.1683 46.7945Z" fill="url(#paint8_linear)"/>
<path d="M56.9386 46.7945C59.2428 46.7945 61.1108 44.9738 61.1108 42.7279C61.1108 40.4819 59.2428 38.6612 56.9386 38.6612C54.6344 38.6612 52.7665 40.4819 52.7665 42.7279C52.7665 44.9738 54.6344 46.7945 56.9386 46.7945Z" fill="url(#paint9_linear)"/>
<path d="M52.2239 43.5007C52.2246 44.1437 52.0685 44.7778 51.7685 45.3506C51.4685 45.9233 51.0332 46.4184 50.4985 46.7951H45.6045C45.0253 46.387 44.5632 45.8408 44.2627 45.2087C43.9621 44.5767 43.8331 43.88 43.8879 43.1854C43.9428 42.4909 44.1798 41.8217 44.5761 41.2419C44.9724 40.6622 45.5148 40.1914 46.1513 39.8746C46.7878 39.5577 47.4971 39.4055 48.2113 39.4325C48.9255 39.4596 49.6206 39.6649 50.23 40.0288C50.8394 40.3927 51.3427 40.9031 51.6918 41.511C52.0408 42.1189 52.2238 42.804 52.2233 43.5007H52.2239Z" fill="url(#paint10_linear)"/>
<path d="M57.398 46.4288C57.398 46.5505 57.3925 46.6709 57.3814 46.7901C57.3819 46.7917 57.3819 46.7934 57.3814 46.7951H49.0703C49.0589 46.6745 49.0532 46.5522 49.0532 46.4293C49.0524 45.4562 49.4101 44.5152 50.0611 43.7774C50.7121 43.0396 51.6131 42.554 52.6003 42.409C52.8066 42.3788 53.015 42.3635 53.2236 42.3632C53.3301 42.3632 53.4361 42.3672 53.541 42.3744C54.2888 42.4302 55.0073 42.6812 55.6212 43.1011C56.2351 43.5211 56.7216 44.0944 57.0297 44.7609C57.0469 44.7978 57.0635 44.8352 57.0789 44.8726C57.2896 45.3657 57.3981 45.8946 57.398 46.4288V46.4288Z" fill="url(#paint11_linear)"/>
<path d="M65.2835 45.6152C65.284 46.0148 65.2237 46.4122 65.1048 46.7945H57.1191C56.926 46.1692 56.8893 45.5079 57.012 44.8659C57.0188 44.8307 57.0257 44.795 57.0337 44.7603C57.2348 43.8512 57.7493 43.0365 58.4917 42.4522C59.2341 41.8679 60.1595 41.5492 61.1136 41.5491C61.2448 41.5491 61.3737 41.5547 61.5015 41.567C61.5588 41.5715 61.616 41.5782 61.6733 41.5854C62.6733 41.718 63.5901 42.1994 64.2539 42.9403C64.9176 43.6813 65.2834 44.6316 65.2835 45.6152V45.6152Z" fill="url(#paint12_linear)"/>
<path d="M39.6542 46.7951C39.668 46.7526 39.68 46.7102 39.692 46.6672C39.882 45.9748 39.8809 45.2458 39.689 44.554C39.4971 43.8621 39.1211 43.2319 38.5991 42.7271C38.0772 42.2224 37.4276 41.8609 36.7163 41.6794C36.005 41.4978 35.2571 41.5026 34.5483 41.6932C34.3823 41.7376 34.2195 41.7924 34.0608 41.8573C33.1053 42.2448 32.3314 42.9643 31.8892 43.8763C31.447 44.7883 31.368 45.8278 31.6674 46.7934H39.6542V46.7951Z" fill="url(#paint13_linear)"/>
<g opacity="0.7">
<path opacity="0.7" d="M63.6978 38.4312C64.1205 38.4312 64.4632 38.0972 64.4632 37.6852C64.4632 37.2732 64.1205 36.9392 63.6978 36.9392C63.2751 36.9392 62.9325 37.2732 62.9325 37.6852C62.9325 38.0972 63.2751 38.4312 63.6978 38.4312Z" fill="url(#paint14_linear)"/>
</g>
<path d="M63.6978 38.3764C64.0895 38.3764 64.407 38.0669 64.407 37.6852C64.407 37.3034 64.0895 36.9939 63.6978 36.9939C63.3061 36.9939 62.9886 37.3034 62.9886 37.6852C62.9886 38.0669 63.3061 38.3764 63.6978 38.3764Z" fill="url(#paint15_linear)"/>
<g opacity="0.7">
<path opacity="0.7" d="M67.2026 45.6967C67.6636 45.6967 68.0372 45.3325 68.0372 44.8832C68.0372 44.4339 67.6636 44.0696 67.2026 44.0696C66.7416 44.0696 66.3679 44.4339 66.3679 44.8832C66.3679 45.3325 66.7416 45.6967 67.2026 45.6967Z" fill="url(#paint16_linear)"/>
</g>
<path d="M67.2026 45.656C67.6404 45.656 67.9954 45.31 67.9954 44.8832C67.9954 44.4564 67.6404 44.1104 67.2026 44.1104C66.7647 44.1104 66.4097 44.4564 66.4097 44.8832C66.4097 45.31 66.7647 45.656 67.2026 45.656Z" fill="url(#paint17_linear)"/>
<g opacity="0.7">
<path opacity="0.7" d="M31.4881 41.1409C31.9946 41.1409 32.4052 40.7407 32.4052 40.247C32.4052 39.7533 31.9946 39.353 31.4881 39.353C30.9815 39.353 30.5709 39.7533 30.5709 40.247C30.5709 40.7407 30.9815 41.1409 31.4881 41.1409Z" fill="url(#paint18_linear)"/>
</g>
<path d="M31.4881 41.1008C31.9718 41.1008 32.364 40.7185 32.364 40.247C32.364 39.7755 31.9718 39.3932 31.4881 39.3932C31.0043 39.3932 30.6122 39.7755 30.6122 40.247C30.6122 40.7185 31.0043 41.1008 31.4881 41.1008Z" fill="url(#paint19_linear)"/>
<g opacity="0.4">
<path opacity="0.4" d="M66.0402 4.97523C65.8369 4.71338 65.5822 4.49358 65.2909 4.32863C64.9567 4.14145 64.5829 4.0316 64.1983 4.00757C63.8136 3.98354 63.4285 4.04596 63.0725 4.19002C62.7165 4.33408 62.3993 4.55593 62.1452 4.83845C61.8912 5.12097 61.7071 5.4566 61.6072 5.81945C61.5074 6.1823 61.4944 6.56266 61.5692 6.93119C61.6441 7.29972 61.8048 7.64656 62.0389 7.94495C62.2731 8.24334 62.5745 8.4853 62.9198 8.65215C63.2651 8.81901 63.6452 8.90631 64.0306 8.90731C64.0839 8.90731 64.1372 8.90731 64.1899 8.90229C64.6433 8.8744 65.0806 8.72732 65.4552 8.47667C65.8298 8.22601 66.1277 7.88113 66.3174 7.47868C66.507 7.07622 66.5813 6.63121 66.5323 6.19091C66.4833 5.75062 66.3128 5.33148 66.0391 4.97802L66.0402 4.97523Z" fill="url(#paint20_linear)"/>
</g>
<path opacity="0.2" d="M66.4097 6.45239C66.4098 7.04172 66.1795 7.60895 65.7658 8.03868C65.352 8.46842 64.7859 8.7284 64.1825 8.76574C64.1326 8.76909 64.0822 8.77077 64.0318 8.77077C63.6672 8.77056 63.3075 8.68861 62.9805 8.53127C62.6536 8.37394 62.3681 8.14541 62.1462 7.86338C61.9243 7.58134 61.772 7.25335 61.7009 6.90475C61.6298 6.55616 61.6419 6.1963 61.7363 5.853C61.8307 5.5097 62.0048 5.19215 62.2452 4.92491C62.4856 4.65767 62.7858 4.44789 63.1226 4.31179C63.4595 4.17569 63.8239 4.11693 64.1878 4.14003C64.5516 4.16313 64.9052 4.26749 65.2211 4.44502V4.44502C65.4966 4.60097 65.7375 4.80882 65.9297 5.05645V5.05645C66.2419 5.45814 66.4105 5.94845 66.4097 6.45239V6.45239Z" fill="#6C63FF"/>
<path opacity="0.05" d="M63.4463 4.98218C63.3235 5.03384 63.2049 5.0947 63.0917 5.16422C63.0161 5.20508 62.9513 5.26241 62.9021 5.33173C62.8781 5.36649 62.8649 5.40727 62.8641 5.44917C62.8633 5.49106 62.8749 5.53229 62.8975 5.56792C62.9548 5.64498 63.0694 5.65726 63.1651 5.66229C63.253 5.68049 63.3443 5.6756 63.4296 5.64813C63.515 5.62066 63.5913 5.57159 63.6508 5.50594L63.8554 5.32503C63.9264 5.26249 64.0043 5.17594 63.9734 5.08772C63.9499 5.02015 63.872 4.98721 63.8015 4.97604C63.6257 4.94232 63.4434 4.97357 63.2899 5.06371" fill="#F55F44"/>
<path opacity="0.05" d="M62.5922 7.48929C62.6611 7.48929 62.7171 7.43479 62.7171 7.36757C62.7171 7.30034 62.6611 7.24584 62.5922 7.24584C62.5232 7.24584 62.4673 7.30034 62.4673 7.36757C62.4673 7.43479 62.5232 7.48929 62.5922 7.48929Z" fill="#F55F44"/>
<path opacity="0.05" d="M65.1374 7.04204C65.3908 7.04204 65.5962 6.84179 65.5962 6.59478C65.5962 6.34776 65.3908 6.14752 65.1374 6.14752C64.884 6.14752 64.6785 6.34776 64.6785 6.59478C64.6785 6.84179 64.884 7.04204 65.1374 7.04204Z" fill="#F55F44"/>
<path opacity="0.05" d="M65.9303 5.05589C65.9284 5.17276 65.8922 5.28666 65.8259 5.38405C65.7597 5.48145 65.6661 5.55824 65.5563 5.6053C65.4465 5.65236 65.3252 5.66771 65.2068 5.64953C65.0883 5.63134 64.9777 5.58039 64.8881 5.50272C64.7985 5.42505 64.7337 5.32394 64.7013 5.2114C64.6689 5.09886 64.6704 4.97962 64.7055 4.86787C64.7406 4.75612 64.8079 4.65655 64.8994 4.581C64.9909 4.50545 65.1028 4.45709 65.2216 4.44168V4.44168C65.4974 4.59845 65.7383 4.80726 65.9303 5.05589V5.05589Z" fill="#F55F44"/>
<path opacity="0.05" d="M65.9761 7.78746C65.7715 8.07119 65.5041 8.30643 65.1936 8.47577C64.8831 8.64511 64.5375 8.74422 64.1824 8.76574C64.1796 8.73391 64.1779 8.70153 64.1779 8.66914C64.1779 8.46569 64.236 8.26625 64.3455 8.09308C64.4551 7.9199 64.6118 7.77979 64.7983 7.68836C64.9848 7.59693 65.1936 7.55779 65.4016 7.57529C65.6096 7.59278 65.8084 7.66624 65.9761 7.78746V7.78746Z" fill="#F55F44"/>
<path opacity="0.25" d="M64.407 23.5331C64.5684 23.5331 64.6992 23.4056 64.6992 23.2483C64.6992 23.0911 64.5684 22.9636 64.407 22.9636C64.2457 22.9636 64.1149 23.0911 64.1149 23.2483C64.1149 23.4056 64.2457 23.5331 64.407 23.5331Z" fill="#535461"/>
<path opacity="0.25" d="M25.4524 31.0154C25.6138 31.0154 25.7446 30.8879 25.7446 30.7306C25.7446 30.5733 25.6138 30.4458 25.4524 30.4458C25.2911 30.4458 25.1603 30.5733 25.1603 30.7306C25.1603 30.8879 25.2911 31.0154 25.4524 31.0154Z" fill="#535461"/>
<path opacity="0.25" d="M75.6924 32.6347C75.8537 32.6347 75.9845 32.5072 75.9845 32.3499C75.9845 32.1926 75.8537 32.0651 75.6924 32.0651C75.531 32.0651 75.4002 32.1926 75.4002 32.3499C75.4002 32.5072 75.531 32.6347 75.6924 32.6347Z" fill="#535461"/>
<path opacity="0.25" d="M39.5402 19.1409C39.7016 19.1409 39.8324 19.0134 39.8324 18.8562C39.8324 18.6989 39.7016 18.5714 39.5402 18.5714C39.3789 18.5714 39.248 18.6989 39.248 18.8562C39.248 19.0134 39.3789 19.1409 39.5402 19.1409Z" fill="#535461"/>
<path opacity="0.25" d="M38.5807 12.5934C38.742 12.5934 38.8728 12.4659 38.8728 12.3086C38.8728 12.1514 38.742 12.0239 38.5807 12.0239C38.4193 12.0239 38.2885 12.1514 38.2885 12.3086C38.2885 12.4659 38.4193 12.5934 38.5807 12.5934Z" fill="#535461"/>
<path opacity="0.25" d="M30.3194 25.5662C30.4808 25.5662 30.6116 25.4387 30.6116 25.2814C30.6116 25.1241 30.4808 24.9966 30.3194 24.9966C30.1581 24.9966 30.0273 25.1241 30.0273 25.2814C30.0273 25.4387 30.1581 25.5662 30.3194 25.5662Z" fill="#535461"/>
<path opacity="0.25" d="M71.6462 25.6159H71.3861V25.3629H71.2802V25.6159H71.0201V25.7197H71.2802V25.9727H71.3861V25.7197H71.6462V25.6159Z" fill="#535461"/>
<path opacity="0.25" d="M76 16.8494H75.7399V16.5964H75.6339V16.8494H75.3738V16.9532H75.6339V17.2062H75.7399V16.9532H76V16.8494Z" fill="#535461"/>
<path opacity="0.25" d="M57.4605 11.9518H57.2004V11.6983H57.0944V11.9518H56.8344V12.0551H57.0944V12.3086H57.2004V12.0551H57.4605V11.9518Z" fill="#535461"/>
<path opacity="0.25" d="M68.8089 24.1926H68.5488V23.9396H68.4428V24.1926H68.1833V24.2964H68.4428V24.5494H68.5488V24.2964H68.8089V24.1926Z" fill="#535461"/>
<path opacity="0.25" d="M59.2959 32.6106H59.0364V32.3577H58.9304V32.6106H58.6703V32.7145H58.9304V32.9674H59.0364V32.7145H59.2959V32.6106Z" fill="#535461"/>
<path opacity="0.25" d="M32.6773 15.2457H32.4173V14.9928H32.3113V15.2457H32.0512V15.349H32.3113V15.6025H32.4173V15.349H32.6773V15.2457Z" fill="#535461"/>
<path opacity="0.25" d="M23.6261 18.5401H23.3661V18.2872H23.2601V18.5401H23V18.6434H23.2601V18.8969H23.3661V18.6434H23.6261V18.5401Z" fill="#535461"/>
<path opacity="0.25" d="M36.2651 28.9103H36.0051V28.6568H35.8991V28.9103H35.6396V29.0136H35.8991V29.2671H36.0051V29.0136H36.2651V28.9103Z" fill="#535461"/>
<path d="M67.2026 45.656C67.6404 45.656 67.9954 45.31 67.9954 44.8832C67.9954 44.4564 67.6404 44.1104 67.2026 44.1104C66.7647 44.1104 66.4097 44.4564 66.4097 44.8832C66.4097 45.31 66.7647 45.656 67.2026 45.656Z" fill="url(#paint21_linear)"/>
<g opacity="0.4">
<path opacity="0.4" d="M38.4077 23.4494C38.3109 23.3246 38.1896 23.2198 38.0508 23.1411C37.8917 23.0508 37.7133 22.9975 37.5296 22.9853C37.3458 22.973 37.1617 23.0023 36.9914 23.0706C36.8211 23.139 36.6693 23.2447 36.5478 23.3796C36.4262 23.5144 36.3381 23.6747 36.2904 23.8481C36.2427 24.0215 36.2366 24.2032 36.2727 24.3793C36.3087 24.5553 36.3859 24.7209 36.4982 24.8631C36.6105 25.0054 36.7549 25.1205 36.9203 25.1995C37.0856 25.2785 37.2675 25.3194 37.4516 25.3188C37.4768 25.3188 37.5026 25.3188 37.5272 25.3188C37.7431 25.3053 37.9512 25.2352 38.1295 25.1158C38.3077 24.9964 38.4495 24.8321 38.5398 24.6405C38.6301 24.4489 38.6655 24.2371 38.6422 24.0275C38.619 23.8179 38.5379 23.6183 38.4077 23.4499V23.4494Z" fill="url(#paint22_linear)"/>
</g>
<path opacity="0.2" d="M38.5835 24.1529C38.5835 24.4336 38.4738 24.7038 38.2767 24.9084C38.0796 25.1131 37.81 25.2368 37.5226 25.2546C37.4991 25.2546 37.475 25.2546 37.451 25.2546C37.2774 25.2544 37.1061 25.2153 36.9504 25.1404C36.7948 25.0654 36.6589 24.9566 36.5532 24.8222C36.4476 24.6879 36.3751 24.5317 36.3413 24.3657C36.3075 24.1997 36.3132 24.0284 36.3582 23.8649C36.4031 23.7014 36.486 23.5502 36.6005 23.423C36.715 23.2957 36.8579 23.1958 37.0183 23.131C37.1787 23.0662 37.3522 23.0381 37.5255 23.0491C37.6987 23.0601 37.8671 23.1097 38.0175 23.1942V23.1942C38.1487 23.2684 38.2633 23.3673 38.355 23.4851V23.4851C38.5043 23.6772 38.5846 23.9119 38.5835 24.1529V24.1529Z" fill="#6C63FF"/>
<path opacity="0.1" d="M37.172 23.4527C37.1125 23.4771 37.055 23.5061 37.0002 23.5393C36.9642 23.5584 36.9332 23.5853 36.9097 23.618C36.8987 23.6347 36.8929 23.654 36.8929 23.6738C36.8929 23.6936 36.8987 23.713 36.9097 23.7297C36.9263 23.7456 36.9463 23.7578 36.9682 23.7655C36.9902 23.7732 37.0136 23.7762 37.0368 23.7743C37.0783 23.7826 37.1214 23.7801 37.1616 23.7671C37.2018 23.7541 37.2378 23.7309 37.266 23.7001L37.3634 23.6141C37.3972 23.5839 37.4344 23.5432 37.4206 23.5024C37.413 23.487 37.4013 23.4737 37.3869 23.464C37.3724 23.4542 37.3557 23.4482 37.3382 23.4466C37.2545 23.4306 37.1677 23.4455 37.0947 23.4884" fill="#F55F44"/>
<path opacity="0.1" d="M36.7653 24.6465C36.7982 24.6465 36.8248 24.6205 36.8248 24.5885C36.8248 24.5564 36.7982 24.5304 36.7653 24.5304C36.7324 24.5304 36.7057 24.5564 36.7057 24.5885C36.7057 24.6205 36.7324 24.6465 36.7653 24.6465Z" fill="#F55F44"/>
<path opacity="0.1" d="M37.9774 24.4338C38.0983 24.4338 38.1963 24.3383 38.1963 24.2205C38.1963 24.1027 38.0983 24.0072 37.9774 24.0072C37.8566 24.0072 37.7586 24.1027 37.7586 24.2205C37.7586 24.3383 37.8566 24.4338 37.9774 24.4338Z" fill="#F55F44"/>
<path opacity="0.1" d="M38.355 23.4901C38.3542 23.5457 38.3371 23.6 38.3057 23.6464C38.2743 23.6928 38.2298 23.7295 38.1776 23.752C38.1254 23.7745 38.0677 23.7819 38.0113 23.7733C37.9549 23.7648 37.9022 23.7406 37.8595 23.7037C37.8168 23.6668 37.7859 23.6188 37.7704 23.5652C37.7549 23.5117 37.7555 23.4549 37.7722 23.4017C37.7888 23.3485 37.8208 23.3011 37.8643 23.2651C37.9078 23.2291 37.961 23.206 38.0176 23.1987V23.1987C38.1487 23.2731 38.2634 23.3721 38.355 23.4901V23.4901Z" fill="#F55F44"/>
<path opacity="0.1" d="M38.3773 24.7889C38.28 24.9241 38.1526 25.0362 38.0048 25.1169C37.8569 25.1976 37.6923 25.2448 37.5232 25.2551C37.5232 25.2401 37.5232 25.2244 37.5232 25.2088C37.5229 25.1114 37.5504 25.0159 37.6028 24.933C37.6551 24.8501 37.7301 24.783 37.8194 24.7394C37.9087 24.6958 38.0087 24.6773 38.1082 24.686C38.2076 24.6948 38.3026 24.7304 38.3825 24.7889H38.3773Z" fill="#F55F44"/>
<g opacity="0.1">
<path opacity="0.1" d="M51.2759 15.282H45.3754V15.5053H51.2759V15.282Z" fill="black"/>
</g>
<path d="M27.359 54H25.427C25.3663 54 25.336 53.972 25.336 53.916V53.559C25.336 53.503 25.3663 53.475 25.427 53.475H25.959V49.499H25.427C25.3663 49.499 25.336 49.471 25.336 49.415V49.058C25.336 49.002 25.3663 48.974 25.427 48.974H29.018C29.0787 48.974 29.109 49.002 29.109 49.058V50.185C29.109 50.2457 29.0787 50.276 29.018 50.276H28.64C28.584 50.276 28.556 50.2457 28.556 50.185V49.499H26.568V51.235H28.213C28.2737 51.235 28.304 51.263 28.304 51.319V51.676C28.304 51.732 28.2737 51.76 28.213 51.76H26.568V53.475H27.359C27.415 53.475 27.443 53.503 27.443 53.559V53.916C27.443 53.972 27.415 54 27.359 54ZM30.9801 54H29.6431C29.5825 54 29.5521 53.972 29.5521 53.916V53.615C29.5521 53.559 29.5825 53.531 29.6431 53.531H30.0281V51.025H29.6431C29.5825 51.025 29.5521 50.997 29.5521 50.941V50.64C29.5521 50.584 29.5825 50.556 29.6431 50.556H30.5251C30.5811 50.556 30.6091 50.584 30.6091 50.64V53.531H30.9801C31.0408 53.531 31.0711 53.559 31.0711 53.615V53.916C31.0711 53.972 31.0408 54 30.9801 54ZM30.5811 49.52C30.6605 49.5993 30.7001 49.6927 30.7001 49.8C30.7001 49.9073 30.6605 49.9983 30.5811 50.073C30.5065 50.1477 30.4155 50.185 30.3081 50.185C30.2008 50.185 30.1075 50.1477 30.0281 50.073C29.9535 49.9983 29.9161 49.9073 29.9161 49.8C29.9161 49.6927 29.9535 49.5993 30.0281 49.52C30.1075 49.4407 30.2008 49.401 30.3081 49.401C30.4155 49.401 30.5065 49.4407 30.5811 49.52ZM35.3269 54H34.6619C34.4612 54 34.3609 53.902 34.3609 53.706V51.865C34.3609 51.5943 34.2956 51.3843 34.1649 51.235C34.0342 51.0857 33.8429 51.011 33.5909 51.011C33.2316 51.011 32.9516 51.158 32.7509 51.452C32.7276 51.48 32.6972 51.5313 32.6599 51.606V53.531H33.0309C33.0916 53.531 33.1219 53.559 33.1219 53.615V53.916C33.1219 53.972 33.0916 54 33.0309 54H31.6939C31.6332 54 31.6029 53.972 31.6029 53.916V53.615C31.6029 53.559 31.6332 53.531 31.6939 53.531H32.0789V51.025H31.6939C31.6332 51.025 31.6029 50.997 31.6029 50.941V50.64C31.6029 50.584 31.6332 50.556 31.6939 50.556H32.5129C32.5736 50.556 32.6039 50.584 32.6039 50.64L32.5899 51.116H32.6109C32.8536 50.71 33.2292 50.507 33.7379 50.507C34.1112 50.507 34.4029 50.6167 34.6129 50.836C34.8229 51.0553 34.9302 51.3517 34.9349 51.725V53.531H35.3269C35.3876 53.531 35.4179 53.559 35.4179 53.615V53.916C35.4179 53.972 35.3876 54 35.3269 54ZM39.434 54H38.825C38.7177 54 38.6383 53.979 38.587 53.937C38.5403 53.8903 38.517 53.8133 38.517 53.706V53.314H38.51C38.4353 53.51 38.2953 53.6827 38.09 53.832C37.8847 53.9767 37.635 54.049 37.341 54.049C36.8743 54.049 36.494 53.8857 36.2 53.559C35.9107 53.2323 35.766 52.8053 35.766 52.278C35.766 51.746 35.9107 51.319 36.2 50.997C36.494 50.6703 36.8767 50.507 37.348 50.507C37.6373 50.507 37.8777 50.5747 38.069 50.71C38.2603 50.8407 38.398 51.0017 38.482 51.193H38.489C38.4843 51.0997 38.482 51.0227 38.482 50.962V49.443H38.09C38.0293 49.443 37.999 49.415 37.999 49.359V49.058C37.999 49.002 38.0293 48.974 38.09 48.974H38.958C39.014 48.974 39.042 49.002 39.042 49.058V53.531H39.434C39.49 53.531 39.518 53.559 39.518 53.615V53.916C39.518 53.972 39.49 54 39.434 54ZM36.34 52.264C36.34 52.6513 36.4403 52.964 36.641 53.202C36.8463 53.44 37.1053 53.559 37.418 53.559C37.7307 53.559 37.9873 53.4423 38.188 53.209C38.3887 52.971 38.489 52.656 38.489 52.264C38.489 51.872 38.3863 51.564 38.181 51.34C37.9757 51.1113 37.7213 50.997 37.418 50.997C37.1147 50.997 36.858 51.1113 36.648 51.34C36.4427 51.5687 36.34 51.8767 36.34 52.264ZM41.4801 54H40.1431C40.0825 54 40.0521 53.972 40.0521 53.916V53.615C40.0521 53.559 40.0825 53.531 40.1431 53.531H40.5281V51.025H40.1431C40.0825 51.025 40.0521 50.997 40.0521 50.941V50.64C40.0521 50.584 40.0825 50.556 40.1431 50.556H41.0251C41.0811 50.556 41.1091 50.584 41.1091 50.64V53.531H41.4801C41.5408 53.531 41.5711 53.559 41.5711 53.615V53.916C41.5711 53.972 41.5408 54 41.4801 54ZM41.0811 49.52C41.1605 49.5993 41.2001 49.6927 41.2001 49.8C41.2001 49.9073 41.1605 49.9983 41.0811 50.073C41.0065 50.1477 40.9155 50.185 40.8081 50.185C40.7008 50.185 40.6075 50.1477 40.5281 50.073C40.4535 49.9983 40.4161 49.9073 40.4161 49.8C40.4161 49.6927 40.4535 49.5993 40.5281 49.52C40.6075 49.4407 40.7008 49.401 40.8081 49.401C40.9155 49.401 41.0065 49.4407 41.0811 49.52ZM45.8269 54H45.1619C44.9612 54 44.8609 53.902 44.8609 53.706V51.865C44.8609 51.5943 44.7956 51.3843 44.6649 51.235C44.5342 51.0857 44.3429 51.011 44.0909 51.011C43.7316 51.011 43.4516 51.158 43.2509 51.452C43.2276 51.48 43.1972 51.5313 43.1599 51.606V53.531H43.5309C43.5916 53.531 43.6219 53.559 43.6219 53.615V53.916C43.6219 53.972 43.5916 54 43.5309 54H42.1939C42.1332 54 42.1029 53.972 42.1029 53.916V53.615C42.1029 53.559 42.1332 53.531 42.1939 53.531H42.5789V51.025H42.1939C42.1332 51.025 42.1029 50.997 42.1029 50.941V50.64C42.1029 50.584 42.1332 50.556 42.1939 50.556H43.0129C43.0736 50.556 43.1039 50.584 43.1039 50.64L43.0899 51.116H43.1109C43.3536 50.71 43.7292 50.507 44.2379 50.507C44.6112 50.507 44.9029 50.6167 45.1129 50.836C45.3229 51.0553 45.4302 51.3517 45.4349 51.725V53.531H45.8269C45.8876 53.531 45.9179 53.559 45.9179 53.615V53.916C45.9179 53.972 45.8876 54 45.8269 54ZM47.9307 55.638C47.6974 55.638 47.52 55.6217 47.3987 55.589C47.282 55.5563 47.1864 55.526 47.1117 55.498C47.0417 55.4747 46.981 55.449 46.9297 55.421C46.8784 55.3977 46.8294 55.372 46.7827 55.344C46.5774 55.2087 46.5004 55.1107 46.5517 55.05L46.7337 54.791C46.7617 54.749 46.8014 54.7467 46.8527 54.784C46.8574 54.784 46.8714 54.7933 46.8947 54.812C46.9227 54.8353 46.9484 54.8563 46.9717 54.875C46.9997 54.8937 47.0347 54.9147 47.0767 54.938C47.1234 54.966 47.1747 54.9893 47.2307 55.008C47.2867 55.0313 47.3474 55.0523 47.4127 55.071C47.5667 55.113 47.737 55.134 47.9237 55.134C48.2597 55.134 48.528 55.0523 48.7287 54.889C48.934 54.7303 49.0367 54.4783 49.0367 54.133V53.335C48.9527 53.531 48.8127 53.699 48.6167 53.839C48.4254 53.979 48.185 54.049 47.8957 54.049C47.4197 54.049 47.037 53.8833 46.7477 53.552C46.463 53.2207 46.3207 52.7913 46.3207 52.264C46.3207 51.7367 46.4654 51.312 46.7547 50.99C47.0487 50.668 47.429 50.507 47.8957 50.507C48.185 50.507 48.4277 50.5747 48.6237 50.71C48.8244 50.8407 48.969 51.0017 49.0577 51.193H49.0717L49.0647 50.64C49.0647 50.584 49.0927 50.556 49.1487 50.556H49.9747C50.0307 50.556 50.0587 50.584 50.0587 50.64V50.941C50.0587 50.997 50.0307 51.025 49.9747 51.025H49.5967V54.133C49.5967 54.6323 49.4427 55.008 49.1347 55.26C48.8314 55.512 48.43 55.638 47.9307 55.638ZM46.8947 52.278C46.8947 52.6607 46.9974 52.971 47.2027 53.209C47.408 53.4423 47.6647 53.559 47.9727 53.559C48.2807 53.559 48.535 53.4423 48.7357 53.209C48.941 52.9757 49.0437 52.663 49.0437 52.271C49.0437 51.879 48.941 51.5687 48.7357 51.34C48.535 51.1113 48.2807 50.997 47.9727 50.997C47.6647 50.997 47.408 51.1137 47.2027 51.347C46.9974 51.5803 46.8947 51.8907 46.8947 52.278ZM54.8873 54H52.9553C52.8947 54 52.8643 53.972 52.8643 53.916V53.559C52.8643 53.503 52.8947 53.475 52.9553 53.475H53.4873V49.499H52.9553C52.8947 49.499 52.8643 49.471 52.8643 49.415V49.058C52.8643 49.002 52.8947 48.974 52.9553 48.974H56.5463C56.607 48.974 56.6373 49.002 56.6373 49.058V50.185C56.6373 50.2457 56.607 50.276 56.5463 50.276H56.1683C56.1123 50.276 56.0843 50.2457 56.0843 50.185V49.499H54.0963V51.235H55.7413C55.802 51.235 55.8323 51.263 55.8323 51.319V51.676C55.8323 51.732 55.802 51.76 55.7413 51.76H54.0963V53.475H54.8873C54.9433 53.475 54.9713 53.503 54.9713 53.559V53.916C54.9713 53.972 54.9433 54 54.8873 54ZM60.0458 54H59.4368C59.2361 54 59.1358 53.902 59.1358 53.706V53.349H59.1218C58.7811 53.8203 58.3261 54.056 57.7568 54.056C57.4208 54.056 57.1454 53.9697 56.9308 53.797C56.7161 53.6197 56.6088 53.3817 56.6088 53.083C56.6088 52.7003 56.7744 52.4203 57.1058 52.243C57.4418 52.061 57.9014 51.97 58.4848 51.97H59.0728V51.886C59.0728 51.3027 58.7694 51.011 58.1628 51.011C57.8781 51.011 57.6728 51.039 57.5468 51.095C57.4208 51.1463 57.3298 51.1883 57.2738 51.221C57.2224 51.2537 57.1828 51.2793 57.1548 51.298C57.0848 51.354 57.0334 51.3587 57.0008 51.312L56.8048 51.067C56.7721 51.0297 56.7768 50.9923 56.8188 50.955C56.8981 50.8523 57.0614 50.752 57.3088 50.654C57.5561 50.556 57.8478 50.507 58.1838 50.507C59.1638 50.507 59.6538 50.9737 59.6538 51.907V53.531H60.0458C60.1018 53.531 60.1298 53.559 60.1298 53.615V53.916C60.1298 53.972 60.1018 54 60.0458 54ZM59.0728 52.39H58.5198C58.2491 52.39 58.0251 52.404 57.8478 52.432C57.6704 52.46 57.5188 52.5207 57.3928 52.614C57.2714 52.7073 57.2108 52.8357 57.2108 52.999C57.2108 53.1623 57.2761 53.2977 57.4068 53.405C57.5421 53.5077 57.7171 53.559 57.9318 53.559C58.3844 53.559 58.7648 53.3583 59.0728 52.957V52.39ZM62.0563 54H60.7193C60.6586 54 60.6283 53.972 60.6283 53.916V53.615C60.6283 53.559 60.6586 53.531 60.7193 53.531H61.1043V49.443H60.7193C60.6586 49.443 60.6283 49.415 60.6283 49.359V49.058C60.6283 49.002 60.6586 48.974 60.7193 48.974H61.4963C61.6223 48.974 61.6853 49.0323 61.6853 49.149V53.531H62.0563C62.117 53.531 62.1473 53.559 62.1473 53.615V53.916C62.1473 53.972 62.117 54 62.0563 54ZM65.8301 53.188C65.8581 53.2113 65.8721 53.2347 65.8721 53.258C65.8721 53.2767 65.8604 53.3047 65.8371 53.342C65.8184 53.3747 65.7741 53.426 65.7041 53.496C65.6387 53.566 65.5454 53.6453 65.4241 53.734C65.3074 53.8227 65.1534 53.8973 64.9621 53.958C64.7754 54.0187 64.5747 54.049 64.3601 54.049C63.8701 54.049 63.4594 53.888 63.1281 53.566C62.8014 53.244 62.6381 52.8123 62.6381 52.271C62.6381 51.725 62.8014 51.2957 63.1281 50.983C63.4594 50.6657 63.8631 50.507 64.3391 50.507C64.8151 50.507 65.1744 50.6797 65.4171 51.025H65.4241L65.4171 50.64C65.4171 50.5793 65.4474 50.549 65.5081 50.549H65.7741C65.8301 50.549 65.8581 50.5793 65.8581 50.64V51.83C65.8581 51.886 65.8301 51.914 65.7741 51.914H65.4521C65.3961 51.914 65.3681 51.886 65.3681 51.83V51.711C65.3634 51.543 65.2677 51.382 65.0811 51.228C64.8944 51.074 64.6564 50.997 64.3671 50.997C64.0824 50.997 63.8211 51.1113 63.5831 51.34C63.3451 51.5687 63.2261 51.8813 63.2261 52.278C63.2261 52.67 63.3427 52.9827 63.5761 53.216C63.8094 53.4447 64.0707 53.559 64.3601 53.559C64.6494 53.559 64.8944 53.4983 65.0951 53.377C65.3004 53.251 65.4381 53.1297 65.5081 53.013C65.5407 52.957 65.5804 52.95 65.6271 52.992L65.8301 53.188ZM69.4075 53.559C69.0808 53.8857 68.6632 54.049 68.1545 54.049C67.6458 54.049 67.2282 53.888 66.9015 53.566C66.5748 53.2393 66.4115 52.8077 66.4115 52.271C66.4115 51.7297 66.5772 51.3003 66.9085 50.983C67.2398 50.6657 67.6552 50.507 68.1545 50.507C68.6585 50.507 69.0738 50.668 69.4005 50.99C69.7318 51.3073 69.8975 51.7343 69.8975 52.271C69.8975 52.803 69.7342 53.2323 69.4075 53.559ZM66.9995 52.271C66.9995 52.6537 67.1115 52.964 67.3355 53.202C67.5595 53.44 67.8325 53.559 68.1545 53.559C68.4812 53.559 68.7565 53.44 68.9805 53.202C69.2045 52.964 69.3165 52.6537 69.3165 52.271C69.3165 51.8883 69.2022 51.5803 68.9735 51.347C68.7495 51.1137 68.4788 50.997 68.1615 50.997C67.8442 50.997 67.5712 51.1137 67.3425 51.347C67.1138 51.5803 66.9995 51.8883 66.9995 52.271ZM74.1414 54H73.4764C73.2757 54 73.1754 53.902 73.1754 53.706V51.865C73.1754 51.5943 73.11 51.3843 72.9794 51.235C72.8487 51.0857 72.6574 51.011 72.4054 51.011C72.046 51.011 71.766 51.158 71.5654 51.452C71.542 51.48 71.5117 51.5313 71.4744 51.606V53.531H71.8454C71.906 53.531 71.9364 53.559 71.9364 53.615V53.916C71.9364 53.972 71.906 54 71.8454 54H70.5084C70.4477 54 70.4174 53.972 70.4174 53.916V53.615C70.4174 53.559 70.4477 53.531 70.5084 53.531H70.8934V51.025H70.5084C70.4477 51.025 70.4174 50.997 70.4174 50.941V50.64C70.4174 50.584 70.4477 50.556 70.5084 50.556H71.3274C71.388 50.556 71.4184 50.584 71.4184 50.64L71.4044 51.116H71.4254C71.668 50.71 72.0437 50.507 72.5524 50.507C72.9257 50.507 73.2174 50.6167 73.4274 50.836C73.6374 51.0553 73.7447 51.3517 73.7494 51.725V53.531H74.1414C74.202 53.531 74.2324 53.559 74.2324 53.615V53.916C74.2324 53.972 74.202 54 74.1414 54Z" fill="white"/>
<defs>
<linearGradient id="paint0_linear" x1="48.3858" y1="42.7541" x2="48.3858" y2="6.68299" gradientUnits="userSpaceOnUse">
<stop stop-color="#808080" stop-opacity="0.25"/>
<stop offset="0.54" stop-color="#808080" stop-opacity="0.12"/>
<stop offset="1" stop-color="#808080" stop-opacity="0.1"/>
</linearGradient>
<linearGradient id="paint1_linear" x1="42.8153" y1="38.463" x2="42.8153" y2="41.9601" gradientUnits="userSpaceOnUse">
<stop stop-color="#E0E0E0"/>
<stop offset="0.31" stop-color="#FCCC63"/>
<stop offset="0.77" stop-color="#F55F44"/>
</linearGradient>
<linearGradient id="paint2_linear" x1="602.695" y1="2196.54" x2="602.695" y2="2415.53" gradientUnits="userSpaceOnUse">
<stop stop-color="#E0E0E0"/>
<stop offset="0.31" stop-color="#FCCC63"/>
<stop offset="0.77" stop-color="#F55F44"/>
</linearGradient>
<linearGradient id="paint3_linear" x1="667.458" y1="2196.54" x2="667.458" y2="2415.53" gradientUnits="userSpaceOnUse">
<stop stop-color="#E0E0E0"/>
<stop offset="0.31" stop-color="#FCCC63"/>
<stop offset="0.77" stop-color="#F55F44"/>
</linearGradient>
<linearGradient id="paint4_linear" x1="771.993" y1="2196.54" x2="771.993" y2="2415.53" gradientUnits="userSpaceOnUse">
<stop stop-color="#E0E0E0"/>
<stop offset="0.31" stop-color="#FCCC63"/>
<stop offset="0.77" stop-color="#F55F44"/>
</linearGradient>
<linearGradient id="paint5_linear" x1="20452.7" y1="8766.41" x2="20452.7" y2="6808.74" gradientUnits="userSpaceOnUse">
<stop stop-color="#808080" stop-opacity="0.25"/>
<stop offset="0.54" stop-color="#808080" stop-opacity="0.12"/>
<stop offset="1" stop-color="#808080" stop-opacity="0.1"/>
</linearGradient>
<linearGradient id="paint6_linear" x1="38.6225" y1="36.7499" x2="38.6225" y2="44.8832" gradientUnits="userSpaceOnUse">
<stop stop-color="#F2F2F2"/>
<stop offset="0.31" stop-color="#E6E6E6"/>
<stop offset="0.77" stop-color="#CCCCCC"/>
</linearGradient>
<linearGradient id="paint7_linear" x1="2522.53" y1="5443.09" x2="2522.53" y2="6863.61" gradientUnits="userSpaceOnUse">
<stop stop-color="#F2F2F2"/>
<stop offset="0.31" stop-color="#E6E6E6"/>
<stop offset="0.77" stop-color="#CCCCCC"/>
</linearGradient>
<linearGradient id="paint8_linear" x1="5502.44" y1="5443.09" x2="5502.44" y2="6863.61" gradientUnits="userSpaceOnUse">
<stop stop-color="#F2F2F2"/>
<stop offset="0.31" stop-color="#E6E6E6"/>
<stop offset="0.77" stop-color="#CCCCCC"/>
</linearGradient>
<linearGradient id="paint9_linear" x1="4996.26" y1="5087.41" x2="4996.26" y2="6272.11" gradientUnits="userSpaceOnUse">
<stop stop-color="#F2F2F2"/>
<stop offset="0.31" stop-color="#E6E6E6"/>
<stop offset="0.77" stop-color="#CCCCCC"/>
</linearGradient>
<linearGradient id="paint10_linear" x1="4841.82" y1="5191.95" x2="4841.82" y2="6162.96" gradientUnits="userSpaceOnUse">
<stop stop-color="#F2F2F2"/>
<stop offset="0.31" stop-color="#E6E6E6"/>
<stop offset="0.77" stop-color="#CCCCCC"/>
</linearGradient>
<linearGradient id="paint11_linear" x1="5598.64" y1="3375.01" x2="5598.64" y2="3726.85" gradientUnits="userSpaceOnUse">
<stop stop-color="#F2F2F2"/>
<stop offset="0.31" stop-color="#E6E6E6"/>
<stop offset="0.77" stop-color="#CCCCCC"/>
</linearGradient>
<linearGradient id="paint12_linear" x1="6753.41" y1="3909.55" x2="6753.41" y2="4402.4" gradientUnits="userSpaceOnUse">
<stop stop-color="#F2F2F2"/>
<stop offset="0.31" stop-color="#E6E6E6"/>
<stop offset="0.77" stop-color="#CCCCCC"/>
</linearGradient>
<linearGradient id="paint13_linear" x1="3022.4" y1="3911.81" x2="3022.4" y2="4404.95" gradientUnits="userSpaceOnUse">
<stop stop-color="#F2F2F2"/>
<stop offset="0.31" stop-color="#E6E6E6"/>
<stop offset="0.77" stop-color="#CCCCCC"/>
</linearGradient>
<linearGradient id="paint14_linear" x1="1150.37" y1="956.94" x2="1150.37" y2="917.074" gradientUnits="userSpaceOnUse">
<stop stop-color="#808080" stop-opacity="0.25"/>
<stop offset="0.54" stop-color="#808080" stop-opacity="0.12"/>
<stop offset="1" stop-color="#808080" stop-opacity="0.1"/>
</linearGradient>
<linearGradient id="paint15_linear" x1="1070.67" y1="853.924" x2="1070.67" y2="888.156" gradientUnits="userSpaceOnUse">
<stop stop-color="#F2F2F2"/>
<stop offset="0.31" stop-color="#E6E6E6"/>
<stop offset="0.77" stop-color="#CCCCCC"/>
</linearGradient>
<linearGradient id="paint16_linear" x1="1354.44" y1="1259.12" x2="1354.44" y2="1211.72" gradientUnits="userSpaceOnUse">
<stop stop-color="#808080" stop-opacity="0.25"/>
<stop offset="0.54" stop-color="#808080" stop-opacity="0.12"/>
<stop offset="1" stop-color="#808080" stop-opacity="0.1"/>
</linearGradient>
<linearGradient id="paint17_linear" x1="67.2026" y1="44.1104" x2="67.2026" y2="45.656" gradientUnits="userSpaceOnUse">
<stop stop-color="#F2F2F2"/>
<stop offset="0.31" stop-color="#E0E0E0"/>
<stop offset="0.77" stop-color="#B3B3B3"/>
</linearGradient>
<linearGradient id="paint18_linear" x1="302.359" y1="1228.6" x2="302.359" y2="1171.35" gradientUnits="userSpaceOnUse">
<stop stop-color="#808080" stop-opacity="0.25"/>
<stop offset="0.54" stop-color="#808080" stop-opacity="0.12"/>
<stop offset="1" stop-color="#808080" stop-opacity="0.1"/>
</linearGradient>
<linearGradient id="paint19_linear" x1="290.178" y1="1121.72" x2="290.178" y2="1173.95" gradientUnits="userSpaceOnUse">
<stop stop-color="#F2F2F2"/>
<stop offset="0.31" stop-color="#E6E6E6"/>
<stop offset="0.77" stop-color="#CCCCCC"/>
</linearGradient>
<linearGradient id="paint20_linear" x1="4351.76" y1="753.402" x2="4351.76" y2="322.567" gradientUnits="userSpaceOnUse">
<stop stop-color="#808080" stop-opacity="0.25"/>
<stop offset="0.54" stop-color="#808080" stop-opacity="0.12"/>
<stop offset="1" stop-color="#808080" stop-opacity="0.1"/>
</linearGradient>
<linearGradient id="paint21_linear" x1="1289.93" y1="1154.36" x2="1289.93" y2="1197.14" gradientUnits="userSpaceOnUse">
<stop stop-color="#F2F2F2"/>
<stop offset="0.31" stop-color="#E6E6E6"/>
<stop offset="0.77" stop-color="#CCCCCC"/>
</linearGradient>
<linearGradient id="paint22_linear" x1="971.318" y1="1066.8" x2="971.318" y2="969.047" gradientUnits="userSpaceOnUse">
<stop stop-color="#808080" stop-opacity="0.25"/>
<stop offset="0.54" stop-color="#808080" stop-opacity="0.12"/>
<stop offset="1" stop-color="#808080" stop-opacity="0.1"/>
</linearGradient>
</defs>
</svg>
