<svg width="1152" height="700" viewBox="0 0 1152 700" fill="none" xmlns="http://www.w3.org/2000/svg">
<g clip-path="url(#clip0)">
<rect width="1152" height="700" fill="white"/>
<g opacity="0.4" clip-path="url(#clip1)">
<path d="M1139.67 402.784C1123.45 402.784 1107.6 397.974 1094.11 388.964C1080.63 379.954 1070.12 367.147 1063.91 352.164C1057.7 337.18 1056.08 320.693 1059.24 304.786C1062.41 288.88 1070.22 274.269 1081.69 262.801C1093.15 251.333 1107.76 243.523 1123.67 240.359C1139.58 237.195 1156.07 238.819 1171.05 245.026C1186.03 251.232 1198.84 261.742 1207.85 275.227C1216.86 288.712 1221.67 304.566 1221.67 320.784C1221.64 342.524 1213 363.367 1197.62 378.739C1182.25 394.112 1161.41 402.759 1139.67 402.784Z" fill="#E6E6E6"/>
<path d="M823.669 195.784C831.401 195.784 837.669 189.516 837.669 181.784C837.669 174.052 831.401 167.784 823.669 167.784C815.937 167.784 809.669 174.052 809.669 181.784C809.669 189.516 815.937 195.784 823.669 195.784Z" fill="#E6E6E6"/>
<path d="M814.669 428.784C828.476 428.784 839.669 417.591 839.669 403.784C839.669 389.977 828.476 378.784 814.669 378.784C800.862 378.784 789.669 389.977 789.669 403.784C789.669 417.591 800.862 428.784 814.669 428.784Z" fill="#E6E6E6"/>
<path d="M1032.67 189.784C1035.98 189.784 1038.67 187.097 1038.67 183.784C1038.67 180.47 1035.98 177.784 1032.67 177.784C1029.36 177.784 1026.67 180.47 1026.67 183.784C1026.67 187.097 1029.36 189.784 1032.67 189.784Z" fill="#FF6584"/>
<path d="M1125.67 296.784C1122.7 296.784 1119.8 295.904 1117.34 294.256C1114.87 292.607 1112.95 290.265 1111.81 287.524C1110.68 284.783 1110.38 281.767 1110.96 278.857C1111.54 275.948 1112.96 273.275 1115.06 271.177C1117.16 269.079 1119.83 267.651 1122.74 267.072C1125.65 266.493 1128.67 266.79 1131.41 267.925C1134.15 269.061 1136.49 270.983 1138.14 273.45C1139.79 275.917 1140.67 278.817 1140.67 281.784C1140.66 285.761 1139.08 289.573 1136.27 292.385C1133.46 295.197 1129.65 296.779 1125.67 296.784ZM1125.67 268.784C1123.1 268.784 1120.58 269.546 1118.45 270.975C1116.31 272.403 1114.64 274.433 1113.66 276.809C1112.67 279.184 1112.42 281.798 1112.92 284.32C1113.42 286.842 1114.66 289.158 1116.48 290.976C1118.29 292.794 1120.61 294.032 1123.13 294.534C1125.65 295.035 1128.27 294.778 1130.64 293.794C1133.02 292.81 1135.05 291.144 1136.48 289.006C1137.91 286.868 1138.67 284.355 1138.67 281.784C1138.67 278.336 1137.3 275.029 1134.86 272.591C1132.42 270.153 1129.12 268.784 1125.67 268.784Z" fill="#CCCCCC"/>
<path d="M1097.67 334.784C1095.49 334.784 1093.37 334.138 1091.56 332.93C1089.75 331.721 1088.34 330.003 1087.51 327.993C1086.67 325.983 1086.46 323.771 1086.88 321.638C1087.3 319.504 1088.35 317.544 1089.89 316.005C1091.43 314.467 1093.39 313.419 1095.52 312.995C1097.66 312.571 1099.87 312.788 1101.88 313.621C1103.89 314.454 1105.61 315.863 1106.82 317.672C1108.02 319.481 1108.67 321.608 1108.67 323.784C1108.67 326.7 1107.51 329.496 1105.44 331.558C1103.38 333.62 1100.59 334.78 1097.67 334.784ZM1097.67 314.784C1095.89 314.784 1094.15 315.311 1092.67 316.3C1091.19 317.289 1090.04 318.695 1089.35 320.339C1088.67 321.984 1088.49 323.794 1088.84 325.539C1089.19 327.285 1090.05 328.889 1091.3 330.148C1092.56 331.406 1094.17 332.263 1095.91 332.611C1097.66 332.958 1099.47 332.78 1101.11 332.099C1102.76 331.417 1104.16 330.264 1105.15 328.784C1106.14 327.304 1106.67 325.564 1106.67 323.784C1106.67 321.397 1105.72 319.107 1104.03 317.42C1102.34 315.732 1100.06 314.784 1097.67 314.784Z" fill="#CCCCCC"/>
<path d="M1159.67 387.784C1157.49 387.784 1155.37 387.138 1153.56 385.93C1151.75 384.721 1150.34 383.003 1149.51 380.993C1148.67 378.983 1148.46 376.771 1148.88 374.638C1149.3 372.504 1150.35 370.544 1151.89 369.005C1153.43 367.467 1155.39 366.419 1157.52 365.995C1159.66 365.571 1161.87 365.788 1163.88 366.621C1165.89 367.454 1167.61 368.863 1168.82 370.672C1170.02 372.481 1170.67 374.608 1170.67 376.784C1170.67 379.7 1169.51 382.496 1167.44 384.558C1165.38 386.62 1162.59 387.78 1159.67 387.784ZM1159.67 367.784C1157.89 367.784 1156.15 368.311 1154.67 369.3C1153.19 370.289 1152.04 371.695 1151.35 373.339C1150.67 374.984 1150.49 376.794 1150.84 378.539C1151.19 380.285 1152.05 381.889 1153.3 383.148C1154.56 384.406 1156.17 385.263 1157.91 385.611C1159.66 385.958 1161.47 385.78 1163.11 385.099C1164.76 384.417 1166.16 383.264 1167.15 381.784C1168.14 380.304 1168.67 378.564 1168.67 376.784C1168.67 374.398 1167.72 372.11 1166.03 370.423C1164.34 368.735 1162.05 367.786 1159.67 367.784Z" fill="#CCCCCC"/>
<path d="M1139.67 353.784C1071.26 353.784 1017.67 339.289 1017.67 320.784C1017.67 310.001 1033.57 300.735 1062.45 294.693L1062.87 296.651C1035.41 302.394 1019.67 311.19 1019.67 320.784C1019.67 337.587 1074.62 351.784 1139.67 351.784C1204.72 351.784 1259.67 337.587 1259.67 320.784C1259.67 311.172 1243.87 302.365 1216.33 296.621L1216.73 294.663C1245.71 300.705 1261.67 309.982 1261.67 320.784C1261.67 339.289 1208.08 353.784 1139.67 353.784Z" fill="#CCCCCC"/>
<path d="M1078.11 671C1075.34 671 1072.53 670.956 1069.78 670.87L1069.84 668.872C1073.79 668.995 1077.83 669.029 1081.79 668.975L1081.82 670.975C1080.59 670.991 1079.35 671 1078.11 671ZM1093.85 670.536L1093.74 668.54C1097.69 668.307 1101.7 667.979 1105.65 667.565L1105.86 669.554C1101.88 669.971 1097.84 670.302 1093.85 670.536ZM1057.76 670.225C1053.77 669.919 1049.74 669.519 1045.78 669.032L1046.02 667.048C1049.95 667.529 1053.95 667.928 1057.91 668.23L1057.76 670.225ZM1117.8 668.025L1117.5 666.049C1121.43 665.452 1125.39 664.76 1129.27 663.989L1129.66 665.95C1125.75 666.727 1121.76 667.425 1117.8 668.025H1117.8ZM1033.86 667.294C1029.92 666.626 1025.94 665.858 1022.04 665.011L1022.46 663.056C1026.34 663.897 1030.29 664.659 1034.2 665.321L1033.86 667.294ZM1141.41 663.332L1140.93 661.391C1144.79 660.437 1148.67 659.382 1152.46 658.257L1153.03 660.175C1149.21 661.309 1145.3 662.371 1141.41 663.332H1141.41ZM1010.34 662.186C1006.47 661.157 1002.58 660.026 998.773 658.822L999.375 656.916C1003.15 658.11 1007.01 659.232 1010.85 660.252L1010.34 662.186ZM1164.49 656.484L1163.84 654.596C1167.58 653.294 1171.35 651.887 1175.03 650.412L1175.77 652.27C1172.06 653.755 1168.27 655.173 1164.49 656.484H1164.49ZM987.348 654.918C983.594 653.538 979.816 652.049 976.121 650.492L976.897 648.648C980.564 650.193 984.312 651.671 988.039 653.041L987.348 654.918ZM1186.82 647.55L1185.99 645.729C1189.59 644.096 1193.2 642.351 1196.74 640.546L1197.65 642.327C1194.09 644.146 1190.45 645.903 1186.82 647.55ZM965.112 645.556C961.503 643.836 957.881 642.007 954.347 640.118L955.289 638.354C958.797 640.228 962.391 642.044 965.973 643.751L965.112 645.556ZM1208.22 636.611L1207.23 634.875C1210.68 632.907 1214.12 630.839 1217.46 628.727L1218.53 630.416C1215.16 632.545 1211.7 634.63 1208.22 636.611V636.611ZM943.845 634.193C940.412 632.151 936.975 629.998 933.629 627.794L934.729 626.124C938.05 628.311 941.461 630.448 944.868 632.475L943.845 634.193ZM1228.54 623.754L1227.4 622.115C1230.65 619.847 1233.89 617.471 1237.03 615.055L1238.25 616.641C1235.08 619.075 1231.82 621.469 1228.54 623.754L1228.54 623.754ZM923.719 620.937C920.491 618.593 917.266 616.137 914.134 613.636L915.382 612.073C918.49 614.555 921.69 616.992 924.893 619.318L923.719 620.937ZM1247.62 609.092L1246.33 607.563C1249.36 605.009 1252.37 602.348 1255.29 599.652L1256.64 601.121C1253.71 603.837 1250.67 606.519 1247.62 609.092V609.092ZM904.894 605.906C901.887 603.273 898.9 600.535 896.017 597.767L897.401 596.323C900.264 599.071 903.227 601.789 906.211 604.402L904.894 605.906ZM1265.29 592.745L1263.87 591.341C1266.66 588.514 1269.42 585.588 1272.07 582.646L1273.56 583.983C1270.89 586.949 1268.11 589.897 1265.29 592.745H1265.29ZM887.521 589.233C884.763 586.333 882.039 583.335 879.425 580.323L880.935 579.013C883.53 582.002 886.233 584.977 888.971 587.855L887.521 589.233ZM1281.41 574.854L1279.87 573.584C1282.39 570.517 1284.87 567.352 1287.25 564.175L1288.85 565.372C1286.46 568.573 1283.95 571.764 1281.41 574.854H1281.41ZM871.744 571.057C869.267 567.927 866.828 564.695 864.494 561.452L866.117 560.284C868.433 563.502 870.853 566.709 873.312 569.816L871.744 571.057ZM1295.84 555.56L1294.19 554.437C1296.42 551.152 1298.6 547.773 1300.68 544.389L1302.39 545.436C1300.29 548.845 1298.09 552.251 1295.84 555.56H1295.84ZM857.692 551.53C855.513 548.189 853.38 544.752 851.353 541.311L853.075 540.295C855.088 543.71 857.205 547.122 859.367 550.437L857.692 551.53ZM1308.46 535.02L1306.71 534.053C1308.63 530.578 1310.49 527.01 1312.25 523.446L1314.05 524.333C1312.27 527.923 1310.39 531.519 1308.46 535.02V535.02ZM845.488 530.814C843.623 527.289 841.814 523.672 840.112 520.064L841.921 519.211C843.61 522.791 845.404 526.381 847.255 529.879L845.488 530.814ZM1319.14 513.398L1317.31 512.596C1318.9 508.956 1320.43 505.229 1321.86 501.518L1323.72 502.234C1322.29 505.975 1320.74 509.73 1319.14 513.398V513.398ZM835.237 509.083C833.704 505.403 832.235 501.639 830.873 497.893L832.753 497.209C834.104 500.927 835.562 504.662 837.083 508.314L835.237 509.083ZM1327.79 490.867L1325.89 490.238C1327.14 486.478 1328.31 482.634 1329.39 478.813L1331.31 479.354C1330.23 483.204 1329.04 487.078 1327.79 490.867V490.867ZM827.02 486.484C825.831 482.673 824.712 478.779 823.697 474.91L825.632 474.402C826.639 478.242 827.749 482.106 828.93 485.889L827.02 486.484ZM1334.31 467.689L1332.36 467.236C1333.25 463.382 1334.07 459.445 1334.79 455.538L1336.76 455.899C1336.03 459.838 1335.21 463.804 1334.31 467.689H1334.31ZM820.912 463.195C820.078 459.289 819.323 455.31 818.669 451.365L820.642 451.037C821.291 454.952 822.04 458.901 822.868 462.777L820.912 463.195ZM1338.66 444.012L1336.68 443.74C1337.22 439.823 1337.67 435.829 1338.03 431.868L1340.02 432.048C1339.66 436.04 1339.21 440.064 1338.66 444.012H1338.66ZM816.971 439.445C816.499 435.486 816.112 431.454 815.819 427.461L817.814 427.314C818.104 431.278 818.489 435.279 818.957 439.209L816.971 439.445ZM1340.84 420.036L1338.84 419.946C1339.02 415.983 1339.11 411.964 1339.11 408H1341.11C1341.11 411.994 1341.02 416.044 1340.84 420.036H1340.84ZM815.213 415.435C815.145 412.982 815.11 410.481 815.11 408C815.11 406.461 815.123 404.925 815.149 403.392L817.149 403.427C817.123 404.948 817.11 406.473 817.11 408C817.11 410.462 817.145 412.945 817.212 415.38L815.213 415.435ZM1339.1 405.21C1339.05 401.245 1338.92 397.226 1338.7 393.264L1340.7 393.152C1340.92 397.145 1341.05 401.194 1341.1 405.189L1339.1 405.21ZM817.624 391.487L815.628 391.362C815.877 387.366 816.222 383.33 816.651 379.365L818.64 379.581C818.213 383.515 817.872 387.521 817.624 391.487ZM1337.77 381.352C1337.37 377.409 1336.87 373.42 1336.29 369.494L1338.27 369.202C1338.85 373.158 1339.35 377.177 1339.76 381.15L1337.77 381.352ZM820.197 367.734L818.22 367.428C818.833 363.472 819.545 359.484 820.336 355.574L822.296 355.971C821.511 359.851 820.805 363.808 820.197 367.734ZM1334.27 357.718C1333.51 353.817 1332.65 349.89 1331.71 346.046L1333.66 345.573C1334.6 349.446 1335.47 353.404 1336.23 357.334L1334.27 357.718ZM824.934 344.317L822.994 343.831C823.965 339.957 825.041 336.051 826.191 332.221L828.106 332.796C826.965 336.597 825.898 340.473 824.934 344.317ZM1328.62 334.503C1327.5 330.695 1326.28 326.865 1325 323.117L1326.89 322.466C1328.19 326.243 1329.41 330.104 1330.54 333.941L1328.62 334.503ZM831.819 321.403L829.932 320.74C831.261 316.959 832.696 313.161 834.197 309.449L836.052 310.199C834.562 313.882 833.138 317.652 831.819 321.403ZM1320.85 311.909C1319.39 308.228 1317.83 304.534 1316.21 300.929L1318.03 300.108C1319.67 303.741 1321.24 307.463 1322.71 311.171L1320.85 311.909ZM840.795 299.206L838.978 298.371C840.648 294.733 842.426 291.085 844.262 287.529L846.039 288.446C844.217 291.976 842.453 295.596 840.795 299.206ZM1311.06 290.17C1309.27 286.64 1307.38 283.102 1305.43 279.656L1307.17 278.67C1309.13 282.143 1311.04 285.708 1312.85 289.266L1311.06 290.17ZM851.772 277.941L850.039 276.943C852.034 273.479 854.138 270.011 856.293 266.637L857.978 267.713C855.84 271.062 853.752 274.503 851.772 277.941L851.772 277.941ZM1299.31 269.406C1297.2 266.042 1294.99 262.69 1292.74 259.444L1294.38 258.304C1296.65 261.575 1298.88 264.952 1301.01 268.342L1299.31 269.406ZM864.645 257.782L863.011 256.63C865.316 253.36 867.727 250.101 870.177 246.942L871.757 248.168C869.326 251.303 866.933 254.537 864.645 257.782ZM1285.71 249.79C1283.3 246.633 1280.79 243.495 1278.25 240.463L1279.78 239.178C1282.34 242.234 1284.87 245.396 1287.3 248.576L1285.71 249.79ZM879.299 238.891L877.776 237.594C880.364 234.555 883.061 231.53 885.792 228.604L887.253 229.968C884.543 232.873 881.867 235.875 879.299 238.891ZM1270.37 231.483C1267.68 228.559 1264.9 225.66 1262.09 222.869L1263.5 221.45C1266.33 224.263 1269.13 227.183 1271.84 230.129L1270.37 231.483ZM895.604 221.419L894.205 219.989C897.065 217.191 900.024 214.425 903.001 211.768L904.333 213.26C901.379 215.897 898.442 218.642 895.604 221.419L895.604 221.419ZM1253.42 214.639C1250.48 211.969 1247.44 209.335 1244.39 206.811L1245.66 205.27C1248.73 207.813 1251.8 210.467 1254.77 213.158L1253.42 214.639ZM913.422 205.507L912.159 203.957C915.252 201.438 918.449 198.953 921.661 196.572L922.852 198.179C919.664 200.542 916.492 203.007 913.422 205.507ZM1235 199.4C1231.83 197.008 1228.56 194.661 1225.29 192.424L1226.42 190.774C1229.71 193.027 1233.01 195.392 1236.21 197.803L1235 199.4ZM932.604 191.29L931.488 189.631C934.798 187.403 938.206 185.222 941.618 183.146L942.657 184.855C939.272 186.915 935.89 189.08 932.604 191.29ZM1215.26 185.899C1211.88 183.807 1208.41 181.768 1204.95 179.837L1205.92 178.09C1209.41 180.036 1212.91 182.091 1216.32 184.198L1215.26 185.899ZM952.992 178.889L952.032 177.134C955.534 175.217 959.125 173.358 962.705 171.606L963.584 173.403C960.032 175.141 956.468 176.986 952.992 178.889V178.889ZM1194.36 174.255C1190.8 172.482 1187.16 170.769 1183.53 169.164L1184.34 167.335C1187.99 168.952 1191.67 170.678 1195.25 172.465L1194.36 174.255ZM974.414 168.411L973.619 166.576C977.279 164.989 981.023 163.468 984.747 162.053L985.456 163.923C981.761 165.327 978.046 166.836 974.414 168.411ZM1172.47 164.576C1168.76 163.14 1164.97 161.77 1161.2 160.504L1161.84 158.608C1165.64 159.884 1169.46 161.264 1173.19 162.712L1172.47 164.576ZM996.722 159.939L996.099 158.039C999.9 156.793 1003.78 155.62 1007.62 154.553L1008.16 156.479C1004.34 157.539 1000.49 158.703 996.722 159.939ZM1149.79 156.966C1145.97 155.878 1142.08 154.866 1138.22 153.956L1138.68 152.01C1142.57 152.926 1146.49 153.947 1150.33 155.042L1149.79 156.966ZM1019.74 153.55L1019.3 151.601C1023.2 150.71 1027.16 149.899 1031.1 149.19L1031.45 151.158C1027.55 151.862 1023.61 152.667 1019.74 153.55V153.55ZM1126.53 151.483C1122.64 150.752 1118.67 150.102 1114.74 149.55L1115.02 147.57C1118.98 148.126 1122.98 148.781 1126.9 149.518L1126.53 151.483ZM1043.26 149.307L1042.99 147.325C1046.95 146.796 1050.98 146.352 1054.96 146.005L1055.13 147.998C1051.18 148.342 1047.19 148.783 1043.26 149.307L1043.26 149.307ZM1102.87 148.16C1098.93 147.789 1094.92 147.502 1090.95 147.31L1091.05 145.312C1095.05 145.506 1099.09 145.794 1103.06 146.168L1102.87 148.16ZM1067.06 147.23L1066.97 145.232C1070.65 145.079 1074.4 145.001 1078.11 145L1079.02 145.001L1079.01 147.001L1078.11 147C1074.42 147.001 1070.71 147.079 1067.06 147.23L1067.06 147.23Z" fill="#E6E6E6"/>
<path d="M852.583 513.789C861.949 502.459 872.524 491.808 885.431 484.771C898.337 477.735 913.885 474.612 927.977 478.797C938.497 481.92 947.463 488.792 955.762 495.973C972.764 510.684 988.441 527.528 1008.49 537.694C1028.55 547.859 1054.97 549.757 1072.01 535.081C1085.49 523.466 1091.23 503.349 1107.33 495.768C1123.2 488.295 1141.6 496.319 1157.71 503.274C1179.57 512.716 1202.21 520.286 1225.35 525.903C1241.01 529.702 1257.15 532.614 1273.19 531.087C1289.23 529.559 1305.33 523.137 1315.79 510.882" fill="#E6E6E6"/>
<path d="M776.115 457.507H816.491C819.247 441.578 819.247 425.295 816.491 409.366H776.115C780.663 425.091 780.663 441.783 776.115 457.507V457.507Z" fill="#6C63FF"/>
<path d="M810.669 424.784H783.669V427.784H810.669V424.784Z" fill="#F2F2F2"/>
<path d="M810.669 431.784H783.669V434.784H810.669V431.784Z" fill="#F2F2F2"/>
<path d="M1038.67 548.784C1041.98 548.784 1044.67 546.097 1044.67 542.784C1044.67 539.47 1041.98 536.784 1038.67 536.784C1035.36 536.784 1032.67 539.47 1032.67 542.784C1032.67 546.097 1035.36 548.784 1038.67 548.784Z" fill="#FF6584"/>
<path d="M1028.11 591.507H1068.49C1071.25 575.578 1071.25 559.295 1068.49 543.366H1028.11C1032.66 559.091 1032.66 575.783 1028.11 591.507V591.507Z" fill="#3F3D56"/>
<path d="M1062.67 561.784H1035.67V564.784H1062.67V561.784Z" fill="#F2F2F2"/>
</g>
</g>
<defs>
<clipPath id="clip0">
<rect width="1152" height="700" fill="white"/>
</clipPath>
<clipPath id="clip1">
<rect width="873.11" height="736.451" fill="white" transform="translate(468 145)"/>
</clipPath>
</defs>
</svg>
